<svg width="15172" height="3780" viewBox="0 0 15172 3780" fill="none" xmlns="http://www.w3.org/2000/svg">
<path d="M4065 1932C4126.5 1932 4180.25 1938.75 4226.25 1952.25C4272.25 1965.75 4309.25 1980 4337.25 1995C4365.25 2010 4382.25 2020 4388.25 2025L4280.25 2205.75C4272.25 2199.75 4258.5 2191 4239 2179.5C4220 2168 4197.25 2157.75 4170.75 2148.75C4144.75 2139.75 4117.5 2135.25 4089 2135.25C4050.5 2135.25 4019.25 2142.25 3995.25 2156.25C3971.75 2169.75 3960 2190 3960 2217C3960 2235.5 3966.25 2252.25 3978.75 2267.25C3991.75 2281.75 4011.25 2295.75 4037.25 2309.25C4063.75 2322.25 4097.25 2336.5 4137.75 2352C4174.75 2365.5 4209.5 2381.5 4242 2400C4274.5 2418.5 4303 2440.5 4327.5 2466C4352.5 2491 4372.25 2520 4386.75 2553C4401.25 2586 4408.5 2623.5 4408.5 2665.5C4408.5 2715.5 4398.25 2759 4377.75 2796C4357.25 2832.5 4329.25 2862.75 4293.75 2886.75C4258.75 2910.75 4218.75 2928.5 4173.75 2940C4129.25 2952 4083 2958 4035 2958C3967 2958 3906 2950.25 3852 2934.75C3798.5 2919.25 3755.25 2902.5 3722.25 2884.5C3689.25 2866.5 3669.5 2854.5 3663 2848.5L3774.75 2660.25C3780.75 2664.75 3792.25 2672 3809.25 2682C3826.75 2692 3848 2702.5 3873 2713.5C3898 2724 3924.5 2733 3952.5 2740.5C3981 2748 4009 2751.75 4036.5 2751.75C4082.5 2751.75 4117 2743 4140 2725.5C4163 2707.5 4174.5 2684 4174.5 2655C4174.5 2633.5 4167.25 2614.25 4152.75 2597.25C4138.25 2580.25 4116.5 2564.25 4087.5 2549.25C4058.5 2533.75 4022.25 2517.5 3978.75 2500.5C3935.25 2483 3894.5 2461.75 3856.5 2436.75C3819 2411.75 3788.5 2380.5 3765 2343C3741.5 2305.5 3729.75 2259 3729.75 2203.5C3729.75 2148 3745.25 2100 3776.25 2059.5C3807.75 2018.5 3849 1987 3900 1965C3951.5 1943 4006.5 1932 4065 1932ZM4796.36 2583.75L4455.11 1950H4727.36L4908.11 2327.25L5089.61 1950H5360.36L5020.61 2583.75V2940H4796.36V2583.75ZM5748.11 1932C5809.61 1932 5863.36 1938.75 5909.36 1952.25C5955.36 1965.75 5992.36 1980 6020.36 1995C6048.36 2010 6065.36 2020 6071.36 2025L5963.36 2205.75C5955.36 2199.75 5941.61 2191 5922.11 2179.5C5903.11 2168 5880.36 2157.75 5853.86 2148.75C5827.86 2139.75 5800.61 2135.25 5772.11 2135.25C5733.61 2135.25 5702.36 2142.25 5678.36 2156.25C5654.86 2169.75 5643.11 2190 5643.11 2217C5643.11 2235.5 5649.36 2252.25 5661.86 2267.25C5674.86 2281.75 5694.36 2295.75 5720.36 2309.25C5746.86 2322.25 5780.36 2336.5 5820.86 2352C5857.86 2365.5 5892.61 2381.5 5925.11 2400C5957.61 2418.5 5986.11 2440.5 6010.61 2466C6035.61 2491 6055.36 2520 6069.86 2553C6084.36 2586 6091.61 2623.5 6091.61 2665.5C6091.61 2715.5 6081.36 2759 6060.86 2796C6040.36 2832.5 6012.36 2862.75 5976.86 2886.75C5941.86 2910.75 5901.86 2928.5 5856.86 2940C5812.36 2952 5766.11 2958 5718.11 2958C5650.11 2958 5589.11 2950.25 5535.11 2934.75C5481.61 2919.25 5438.36 2902.5 5405.36 2884.5C5372.36 2866.5 5352.61 2854.5 5346.11 2848.5L5457.86 2660.25C5463.86 2664.75 5475.36 2672 5492.36 2682C5509.86 2692 5531.11 2702.5 5556.11 2713.5C5581.11 2724 5607.61 2733 5635.61 2740.5C5664.11 2748 5692.11 2751.75 5719.61 2751.75C5765.61 2751.75 5800.11 2743 5823.11 2725.5C5846.11 2707.5 5857.61 2684 5857.61 2655C5857.61 2633.5 5850.36 2614.25 5835.86 2597.25C5821.36 2580.25 5799.61 2564.25 5770.61 2549.25C5741.61 2533.75 5705.36 2517.5 5661.86 2500.5C5618.36 2483 5577.61 2461.75 5539.61 2436.75C5502.11 2411.75 5471.61 2380.5 5448.11 2343C5424.61 2305.5 5412.86 2259 5412.86 2203.5C5412.86 2148 5428.36 2100 5459.36 2059.5C5490.86 2018.5 5532.11 1987 5583.11 1965C5634.61 1943 5689.61 1932 5748.11 1932ZM6434.46 2155.5L6450.96 2158.5V2940H6226.71V1950H6532.71L6933.96 2730L6917.46 2733V1950H7141.71V2940H6834.21L6434.46 2155.5ZM7310.7 1950H7942.95V2146.5H7534.2V2348.25H7939.2V2538.75H7534.2V2743.5H7942.95V2940H7310.7V1950ZM8296.46 2146.5H8060.21V1950H8756.21V2146.5H8520.71V2940H8296.46V2146.5ZM9275.84 1950H9573.59C9679.09 1950 9766.34 1971.25 9835.34 2013.75C9904.84 2055.75 9956.84 2114 9991.34 2188.5C10025.8 2263 10043.1 2348.25 10043.1 2444.25C10043.1 2540.75 10025.8 2626.25 9991.34 2700.75C9956.84 2775.25 9904.84 2833.75 9835.34 2876.25C9766.34 2918.75 9679.09 2940 9573.59 2940H9275.84V1950ZM9499.34 2148.75V2741.25H9553.34C9609.84 2741.25 9656.59 2728.5 9693.59 2703C9730.59 2677 9758.34 2641.75 9776.84 2597.25C9795.84 2552.25 9805.34 2501.75 9805.34 2445.75C9805.34 2389.25 9796.09 2338.75 9777.59 2294.25C9759.59 2249.25 9731.84 2213.75 9694.34 2187.75C9656.84 2161.75 9609.84 2148.75 9553.34 2148.75H9499.34ZM10174.5 1950H10806.7V2146.5H10398V2348.25H10803V2538.75H10398V2743.5H10806.7V2940H10174.5V1950ZM10981.7 1950H11554V2146.5H11206V2346H11527.7V2541.75H11206V2940H10981.7V1950ZM12038.7 2324.25H12282.4L12430.9 2733L12580.2 2324.25H12822.4L12564.4 2940H12297.4L12038.7 2324.25ZM13027 2234.25L12869.5 2316.75V2103.75L13145.5 1950H13251.2V2940H13027V2234.25ZM13558.2 2958C13521.2 2958 13489.2 2944.75 13462.2 2918.25C13435.7 2891.25 13422.4 2859.25 13422.4 2822.25C13422.4 2784.25 13435.7 2752 13462.2 2725.5C13489.2 2698.5 13521.2 2685 13558.2 2685C13596.2 2685 13628.4 2698.5 13654.9 2725.5C13681.4 2752 13694.7 2784.25 13694.7 2822.25C13694.7 2859.25 13681.4 2891.25 13654.9 2918.25C13628.4 2944.75 13596.2 2958 13558.2 2958ZM13830 2445.75C13830 2359.75 13840.8 2284.75 13862.3 2220.75C13884.3 2156.25 13914 2102.75 13951.5 2060.25C13989.5 2017.25 14032.5 1985.25 14080.5 1964.25C14129 1942.75 14179.8 1932 14232.8 1932C14285.8 1932 14336.3 1942.75 14384.3 1964.25C14432.8 1985.25 14475.8 2017.25 14513.3 2060.25C14550.8 2102.75 14580.3 2156.25 14601.8 2220.75C14623.3 2284.75 14634 2359.75 14634 2445.75C14634 2537.25 14623.3 2615.5 14601.8 2680.5C14580.3 2745.5 14550.8 2798.5 14513.3 2839.5C14475.8 2880 14432.8 2910 14384.3 2929.5C14336.3 2948.5 14285.8 2958 14232.8 2958C14179.8 2958 14129 2948.5 14080.5 2929.5C14032.5 2910 13989.5 2880 13951.5 2839.5C13914 2798.5 13884.3 2745.5 13862.3 2680.5C13840.8 2615.5 13830 2537.25 13830 2445.75ZM14055 2445.75C14055 2517.25 14062.3 2576.25 14076.8 2622.75C14091.3 2669.25 14111.8 2704 14138.3 2727C14164.8 2749.5 14196.3 2760.75 14232.8 2760.75C14269.3 2760.75 14300.5 2749.5 14326.5 2727C14353 2704 14373.3 2669.25 14387.3 2622.75C14401.8 2575.75 14409 2516.75 14409 2445.75C14409 2378.75 14401.8 2321.75 14387.3 2274.75C14373.3 2227.75 14353 2191.75 14326.5 2166.75C14300.5 2141.75 14269.3 2129.25 14232.8 2129.25C14196.3 2129.25 14164.8 2141.75 14138.3 2166.75C14111.8 2191.75 14091.3 2227.75 14076.8 2274.75C14062.3 2321.75 14055 2378.75 14055 2445.75Z" fill="white"/>
<path fill-rule="evenodd" clip-rule="evenodd" d="M9548.55 566.887C9581.77 598.115 9597.92 644.79 9597.92 708.142V786.269V795.112H9588.35H9509.8C9488.81 795.112 9471.74 779.106 9471.74 759.518V708.142C9471.74 679.152 9467.35 659.789 9456.17 648.26C9445.21 636.955 9426.52 632.254 9397.8 632.254H9088.12C9059.28 632.254 9040.71 636.955 9029.75 648.26C9018.57 659.789 9014.18 679.152 9014.18 708.142C9014.18 727.842 9015.34 744.295 9017.76 757.839C9020.06 770.711 9023.52 780.785 9028.14 788.172C9032.75 794.888 9040.13 801.156 9050.28 807.2C9060.9 813.468 9074.62 819.288 9091.23 824.661L9400.8 921.816C9438.75 933.68 9470.7 946.329 9496.31 959.536C9522.83 973.192 9542.9 987.631 9556.17 1002.41C9570.35 1017.52 9580.85 1037.66 9587.77 1063.41C9594.58 1088.37 9597.92 1118.7 9597.92 1154.52C9597.92 1217.76 9581.77 1264.54 9548.55 1295.77C9515.22 1326.89 9465.39 1342 9397.8 1342H9088.12C9020.53 1342 8970.7 1326.89 8937.37 1295.77C8904.15 1264.54 8888 1217.76 8888 1154.52V1076.39V1067.55H8897.57H8976.12C8997.11 1067.55 9014.18 1083.55 9014.18 1103.14V1154.52C9014.18 1183.51 9018.57 1202.87 9029.75 1214.4C9040.71 1225.71 9059.28 1230.41 9088.12 1230.41H9397.8C9426.52 1230.41 9445.21 1225.71 9456.17 1214.4C9467.35 1202.87 9471.74 1183.51 9471.74 1154.52C9471.74 1134.82 9470.58 1118.36 9468.16 1104.93C9465.86 1092.17 9462.4 1082.44 9457.78 1075.61L9457.55 1075.38C9453.05 1068.22 9445.67 1061.62 9435.52 1055.57C9424.91 1049.19 9411.3 1043.26 9394.69 1038V1037.89L9085.12 940.844C9046.82 928.868 9014.64 916.331 8988.81 903.348C8962.39 890.028 8942.33 876.037 8928.48 861.262L8928.37 861.15C8914.87 846.04 8904.61 825.444 8897.92 799.365C8891.34 774.181 8888 743.736 8888 708.142C8888 644.79 8904.15 598.115 8937.37 566.887C8970.7 535.77 9020.53 520.66 9088.12 520.66H9397.8C9465.39 520.66 9515.22 535.77 9548.55 566.887ZM9728.02 745.527C9761.01 714.298 9810.84 699.188 9879.58 699.188H10094C10162.7 699.188 10212.6 714.298 10245.7 745.527C10278.7 776.755 10294.1 823.43 10294.1 886.67V1154.52C10294.1 1217.76 10278.7 1264.43 10245.7 1295.66C10212.6 1326.89 10162.7 1342 10094 1342H9879.58C9810.84 1342 9761.01 1326.89 9728.02 1295.66C9695.04 1264.43 9679.47 1217.76 9679.47 1154.52V886.67C9679.47 823.43 9695.04 776.755 9728.02 745.527ZM10152.4 1214.4C10163.5 1202.87 10167.9 1183.51 10167.9 1154.52V886.67C10167.9 857.68 10163.5 838.316 10152.4 826.788C10141.4 815.483 10122.8 810.782 10094 810.782H9879.58C9850.86 810.782 9832.18 815.483 9821.22 826.788C9810.15 838.316 9805.76 857.68 9805.76 886.67V1154.52C9805.76 1183.51 9810.15 1202.87 9821.22 1214.4C9832.18 1225.71 9850.86 1230.41 9879.58 1230.41H10094C10122.8 1230.41 10141.4 1225.71 10152.4 1214.4ZM10397.1 476H10475.8C10496.8 476 10513.8 492.118 10513.8 511.706V1176.79C10513.8 1197.61 10516.5 1211.38 10523.9 1219.44C10530.9 1227.16 10543.6 1230.41 10563.9 1230.41H10630.7C10651.6 1230.41 10668.7 1246.52 10668.7 1266.11V1333.05V1342H10659.2H10563.9C10501.7 1342 10457.9 1330.02 10429.2 1303.16C10400.5 1276.19 10387.7 1235.11 10387.7 1176.79V484.954V476H10397.1ZM11218.6 1154.52V734.893C11218.6 715.194 11235.6 699.188 11256.6 699.188H11335.3H11344.8V708.142V1154.52C11344.8 1281.11 11279.8 1342 11144.6 1342H10930.3C10795.2 1342 10730.2 1281.11 10730.2 1154.52V708.142V699.188H10739.7H10818.3C10839.3 699.188 10856.4 715.306 10856.4 734.893V1154.52C10856.4 1208.8 10869.5 1230.41 10930.3 1230.41H11144.6C11205.4 1230.41 11218.6 1208.8 11218.6 1154.52ZM11580.5 1219.44C11587.5 1227.16 11600.2 1230.41 11620.5 1230.41H11782.6C11803.6 1230.41 11820.6 1246.52 11820.6 1266.11V1333.05V1342H11811.1H11620.5C11558.4 1342 11514.5 1330.02 11485.7 1303.16C11457 1276.19 11444.3 1235.11 11444.3 1176.79V596.548V587.594H11453.7H11532.4C11553.4 587.594 11570.5 603.712 11570.5 623.299V699.188H11796.8V775.076C11796.8 794.664 11779.6 810.782 11758.7 810.782H11570.5V1176.79C11570.5 1197.61 11573.1 1211.38 11580.5 1219.44ZM12016.5 708.142V1333.05V1342H12007H11899.8H11890.3V1333.05V708.142V699.188H11899.8H12007H12016.5V708.142ZM11866.8 557.485C11866.8 536.554 11875.2 515.511 11891.9 499.841C11908.6 484.171 11931 476.336 11953.4 476.336C11975.8 476.336 11998.2 484.171 12014.9 499.841C12031.7 515.511 12040 536.554 12040 557.485C12040 578.416 12031.7 599.458 12014.9 615.129C11998.2 630.799 11975.8 638.634 11953.4 638.634C11931 638.634 11908.6 630.799 11891.9 615.129C11875.2 599.347 11866.8 578.416 11866.8 557.485ZM12158.6 745.527C12191.6 714.298 12241.4 699.188 12310.1 699.188H12524.6C12593.3 699.188 12643.1 714.298 12676.1 745.527C12709.1 776.755 12724.7 823.43 12724.7 886.67V1154.52C12724.7 1217.76 12709.1 1264.43 12676.1 1295.66C12643.1 1326.89 12593.3 1342 12524.6 1342H12310.1C12241.4 1342 12191.6 1326.89 12158.6 1295.66C12125.5 1264.43 12110 1217.76 12110 1154.52V886.67C12110 823.43 12125.5 776.755 12158.6 745.527ZM12582.9 1214.4C12594.1 1202.87 12598.4 1183.51 12598.4 1154.52V886.67C12598.4 857.68 12594.1 838.316 12582.9 826.788C12572 815.483 12553.3 810.782 12524.6 810.782H12310.1C12281.3 810.782 12262.7 815.483 12251.8 826.788C12240.6 838.316 12236.2 857.68 12236.2 886.67V1154.52C12236.2 1183.51 12240.6 1202.87 12251.8 1214.4C12262.7 1225.71 12281.3 1230.41 12310.1 1230.41H12524.6C12553.3 1230.41 12572 1225.71 12582.9 1214.4ZM13413.5 886.67V1333.05V1342H13403.9H13325.3C13304.5 1342 13287.2 1325.99 13287.2 1306.29V886.67C13287.2 857.68 13282.8 838.316 13271.7 826.788C13260.8 815.483 13242.1 810.782 13213.4 810.782H12999C12970.1 810.782 12951.6 815.483 12940.6 826.788C12929.4 838.316 12925 857.68 12925 886.67V1306.29C12925 1325.88 12907.8 1342 12887 1342H12808.3H12798.8V1333.05V886.67C12798.8 823.43 12815 776.643 12848.2 745.527C12881.5 714.298 12931.4 699.188 12999 699.188H13213.4C13280.9 699.188 13330.8 714.298 13364 745.527C13397.3 776.643 13413.5 823.43 13413.5 886.67ZM14056.5 745.527C14089.9 776.643 14106 823.43 14106 886.67V920.137V929.091H14096.4H14017.8C13997 929.091 13979.7 913.085 13979.7 893.386V886.67C13979.7 857.68 13975.3 838.316 13964.2 826.788C13953.3 815.483 13934.6 810.782 13905.9 810.782H13691.5C13662.6 810.782 13644.1 815.483 13633.1 826.788C13621.9 838.316 13617.5 857.68 13617.5 886.67C13617.5 900.997 13620.1 909.951 13629.2 916.443C13639.9 924.166 13659.9 930.211 13693.8 938.27V938.382L13908.2 988.526C13928.3 993.451 13945.6 997.592 13956.6 1000.39C13970 1003.86 13981.4 1006.99 13991 1009.9C14000.3 1012.93 14009.7 1016.4 14019.3 1020.65C14028.8 1025.02 14038.6 1030.28 14049.3 1036.54V1036.66C14070.5 1048.74 14084.8 1064.3 14093.7 1084.11C14102.4 1103.48 14106 1126.65 14106 1154.52C14106 1217.76 14089.9 1264.54 14056.5 1295.77C14023.3 1326.89 13973.4 1342 13905.9 1342H13691.5C13623.9 1342 13574 1326.89 13540.7 1295.77C13507.5 1264.54 13491.4 1217.76 13491.4 1154.52V1121.05V1112.1H13500.8H13579.5C13600.5 1112.1 13617.5 1128.33 13617.5 1147.8V1154.52C13617.5 1183.51 13621.9 1202.87 13633.1 1214.4C13644.1 1225.71 13662.6 1230.41 13691.5 1230.41H13905.9C13934.6 1230.41 13953.3 1225.71 13964.2 1214.4C13975.3 1202.87 13979.7 1183.51 13979.7 1154.52C13979.7 1140.19 13977.3 1131.24 13968.2 1124.74C13957.3 1117.02 13937.5 1110.98 13903.6 1102.92L13689.2 1052.66C13669 1047.74 13651.9 1043.6 13640.7 1040.8C13627.3 1037.33 13615.9 1034.19 13606.3 1031.28C13597 1028.37 13587.7 1024.9 13578.2 1020.65C13568.6 1016.51 13558.8 1011.7 13548.4 1005.99L13548.2 1005.76C13526.8 993.003 13512.5 977.221 13503.6 957.186C13494.8 937.822 13491.4 914.652 13491.4 886.67C13491.4 823.43 13507.5 776.643 13540.7 745.527C13574 714.298 13623.9 699.188 13691.5 699.188H13905.9C13973.4 699.188 14023.3 714.298 14056.5 745.527Z" fill="#005DFF"/>
<path fill-rule="evenodd" clip-rule="evenodd" d="M3708.19 1329.89L4001.18 526.085L4003.39 520.037H4010.11H4132.51C4165.34 520.037 4193.28 538.757 4204.13 567.941L4485.22 1329.89L4489.54 1341.7H4476.29H4383.84C4367.42 1341.7 4353.41 1332.39 4348.03 1317.8L4275.07 1120.71H3917.18L3845.38 1317.6C3840 1332.29 3825.98 1341.7 3809.47 1341.7H3717.12H3703.87L3708.19 1329.89ZM4234.08 1009.06L4095.55 633.797L3958.18 1009.06H4234.08ZM4980.77 1214.12C4991.9 1202.6 4996.22 1183.2 4996.22 1154.21V1147.49C4996.22 1127.81 5013.31 1111.78 5034.14 1111.78H5112.48H5121.89V1120.71V1154.21C5121.89 1217.48 5106.53 1264.13 5073.6 1295.43C5040.77 1326.63 4991.14 1341.7 4922.69 1341.7H4709.18C4640.74 1341.7 4591.1 1326.63 4558.18 1295.43C4525.34 1264.13 4509.89 1217.48 4509.89 1154.21V886.277C4509.89 758.501 4573.44 698.693 4709.18 698.693H4922.69C4991.14 698.693 5040.77 713.765 5073.6 744.965C5106.53 776.261 5121.89 823.013 5121.89 886.277V928.613C5092.7 928.613 5063.42 928.613 5034.14 928.613C5013.31 928.613 4996.22 912.581 4996.22 892.997V886.277C4996.22 857.189 4991.9 837.893 4980.77 826.277C4969.92 815.045 4951.3 810.245 4922.69 810.245H4709.18C4648.7 810.245 4635.65 831.845 4635.65 886.277V1154.21C4635.65 1183.2 4639.97 1202.6 4651.1 1214.12C4661.95 1225.44 4680.48 1230.15 4709.18 1230.15H4922.69C4951.3 1230.15 4969.92 1225.44 4980.77 1214.12ZM5248.7 744.965C5281.82 713.765 5331.46 698.693 5398.75 698.693H5564.83H5574.24V707.621V774.629C5574.24 794.213 5557.15 810.245 5536.42 810.245H5398.75C5370.14 810.245 5351.52 815.045 5340.67 826.277C5329.54 837.893 5325.22 857.189 5325.22 886.277V1306.08C5325.22 1325.67 5308.13 1341.7 5287.3 1341.7H5208.96H5199.55V1332.87V886.277C5199.55 822.917 5215.58 776.165 5248.7 744.965ZM5819.23 698.693H6032.74C6168.48 698.693 6231.94 758.501 6231.94 886.277V1154.21C6231.94 1281.89 6168.48 1341.7 6032.74 1341.7H5819.23C5683.39 1341.7 5619.94 1281.89 5619.94 1154.21V886.277C5619.94 758.501 5683.39 698.693 5819.23 698.693ZM6090.82 1214.12C6101.95 1202.6 6106.27 1183.2 6106.27 1154.21V886.277C6106.27 831.845 6093.12 810.245 6032.74 810.245H5819.23C5758.75 810.245 5745.6 831.845 5745.6 886.277V1154.21C5745.6 1208.55 5758.75 1230.15 5819.23 1230.15H6032.74C6061.34 1230.15 6079.87 1225.44 6090.82 1214.12ZM6937.06 886.277V1332.87V1341.7H6927.65H6849.31C6828.48 1341.7 6811.39 1325.67 6811.39 1306.08V886.277C6811.39 831.845 6798.24 810.245 6737.86 810.245H6524.35C6463.87 810.245 6450.72 831.845 6450.72 886.277V1306.08C6450.72 1325.67 6433.63 1341.7 6412.9 1341.7H6334.56H6325.06V1332.87V886.277C6325.06 759.557 6389.76 698.693 6524.35 698.693H6737.86C6872.35 698.693 6937.06 759.557 6937.06 886.277ZM7161.79 1341.7C7132.51 1341.7 7103.33 1341.7 7074.05 1341.7C7053.12 1341.7 7036.13 1325.67 7036.13 1306.08V698.693H7123.87C7144.8 698.693 7161.79 714.821 7161.79 734.309V1341.7ZM7012.7 556.901C7012.7 535.877 7021.06 514.949 7037.66 499.205H7037.76C7054.46 483.557 7076.74 475.685 7099.01 475.685C7121.28 475.685 7143.55 483.557 7160.26 499.205C7176.86 514.853 7185.22 535.877 7185.22 556.901C7185.22 577.829 7176.86 598.757 7160.26 614.501H7160.16C7143.46 630.245 7121.18 638.021 7099.01 638.021C7076.74 638.021 7054.37 630.245 7037.66 614.501C7021.06 598.853 7012.7 577.829 7012.7 556.901ZM7735.39 1214.12C7746.53 1202.6 7750.85 1183.2 7750.85 1154.21V1147.49C7750.85 1127.81 7767.84 1111.78 7788.77 1111.78H7867.1H7876.51V1120.71V1154.21C7876.51 1217.48 7861.15 1264.13 7828.22 1295.43C7795.39 1326.63 7745.76 1341.7 7677.31 1341.7H7463.81C7395.36 1341.7 7345.73 1326.63 7312.8 1295.43C7279.97 1264.13 7264.51 1217.48 7264.51 1154.21V886.277C7264.51 823.013 7279.97 776.261 7312.8 744.965C7345.73 713.765 7395.36 698.693 7463.81 698.693H7677.31C7745.76 698.693 7795.39 713.765 7828.22 744.965C7861.15 776.261 7876.51 823.013 7876.51 886.277V928.613C7847.33 928.613 7818.05 928.613 7788.77 928.613C7767.84 928.613 7750.85 912.581 7750.85 892.997V886.277C7750.85 857.189 7746.53 837.893 7735.39 826.277C7724.54 815.045 7705.92 810.245 7677.31 810.245H7463.81C7435.1 810.245 7416.58 815.045 7405.73 826.277C7394.59 837.893 7390.18 857.189 7390.18 886.277V1154.21C7390.18 1183.2 7394.59 1202.6 7405.73 1214.12C7416.58 1225.44 7435.1 1230.15 7463.81 1230.15H7677.31C7705.92 1230.15 7724.54 1225.44 7735.39 1214.12ZM8524.32 744.965C8557.44 776.165 8573.47 822.917 8573.47 886.277V919.685V928.613H8564.06H8485.73C8464.99 928.613 8447.81 912.581 8447.81 892.997V886.277C8447.81 857.189 8443.49 837.893 8432.35 826.277C8421.41 815.045 8402.88 810.245 8374.27 810.245H8160.77C8132.06 810.245 8113.54 815.045 8102.59 826.277C8091.55 837.893 8087.14 857.189 8087.14 886.277C8087.14 900.581 8089.63 909.509 8098.75 916.037C8109.5 923.717 8129.28 929.765 8163.07 937.925L8376.58 988.133C8396.54 993.029 8413.73 997.253 8424.77 1000.04C8438.11 1003.49 8449.54 1006.56 8459.04 1009.54C8468.35 1012.52 8477.66 1015.97 8487.17 1020.29C8496.67 1024.61 8506.46 1029.8 8516.93 1036.23C8538.24 1048.42 8552.35 1063.97 8561.28 1083.75C8570.02 1103.14 8573.47 1126.28 8573.47 1154.21C8573.47 1217.48 8557.44 1264.23 8524.32 1295.43C8491.2 1326.63 8441.47 1341.7 8374.27 1341.7H8160.77C8093.47 1341.7 8043.84 1326.63 8010.62 1295.43C7977.5 1264.23 7961.47 1217.48 7961.47 1154.21V1120.71V1111.78H7970.98H8049.31C8070.14 1111.78 8087.14 1127.91 8087.14 1147.49V1154.21C8087.14 1183.2 8091.55 1202.6 8102.59 1214.12C8113.54 1225.44 8132.06 1230.15 8160.77 1230.15H8374.27C8402.88 1230.15 8421.41 1225.44 8432.35 1214.12C8443.49 1202.6 8447.81 1183.2 8447.81 1154.21C8447.81 1139.81 8445.31 1130.98 8436.29 1124.45C8425.54 1116.68 8405.66 1110.63 8371.87 1102.56L8158.46 1052.26H8158.37C8138.4 1047.36 8121.41 1043.24 8110.18 1040.36C8096.83 1037 8085.5 1033.83 8075.9 1030.85C8066.69 1027.97 8057.38 1024.52 8047.87 1020.29C8038.46 1016.16 8028.67 1011.27 8018.4 1005.51L8018.11 1005.32C7996.8 992.645 7982.59 976.805 7973.66 956.837C7964.93 937.349 7961.47 914.213 7961.47 886.277C7961.47 822.917 7977.5 776.165 8010.62 744.965C8043.84 713.765 8093.47 698.693 8160.77 698.693H8374.27C8441.47 698.693 8491.2 713.765 8524.32 744.965Z" fill="url(#paint0_linear_676_2161)"/>
<path d="M555.745 1352.74C850.657 978.341 1145.57 603.941 1440.48 229.637C1650.82 -37.3388 2053.15 -37.3388 2263.49 229.637C2576.93 627.461 2890.46 1025.38 3203.9 1423.3C3278.3 1518.05 3203.04 1653.89 3085.92 1645.44C2915.52 1645.44 2745.02 1645.44 2574.53 1645.44C2532.29 1645.44 2492.74 1626.15 2466.72 1593.12C2464.8 1590.72 2238.72 1301 2215.78 1271.24C2154.53 1191.84 2093.28 1112.55 1965.98 951.077C1878.82 840.581 1810.75 850.853 1737.5 949.733C1605.98 1118.88 1474.46 1287.94 1342.94 1457.09C1296.38 1517.09 1209.89 1527.94 1149.89 1481.28C1089.89 1434.63 1079.04 1348.23 1125.7 1288.23C1301.86 1062.63 1478.02 837.125 1654.18 611.621C1768.22 469.061 1900.22 450.917 2041.06 612.101L2433.02 1103.43C2487.17 1173.6 2541.31 1243.78 2641.54 1371.17C2698.66 1371.17 2755.68 1371.17 2812.7 1371.17C2557.54 1047.27 2318.88 744.293 2063.71 420.389C1963.58 293.285 1735.97 298.853 1635.84 425.957C1340.93 800.357 1066.85 1148.26 771.937 1522.66C703.105 1610.12 763.297 1736.93 875.905 1736.93C1526.59 1736.93 2177.38 1736.93 2828.06 1736.93C2906.5 1736.93 2980.51 1758.72 3044.45 1798.76C3078.34 1819.97 3109.06 1846.18 3135.36 1876.71C3257.66 2014.37 3285.6 2230.85 3152.06 2400.48C2857.15 2774.79 2562.24 3149.19 2267.33 3523.59C2056.99 3790.47 1654.66 3790.56 1444.32 3523.59C1130.88 3125.67 817.441 2727.75 503.905 2329.83C429.505 2235.17 504.865 2099.33 621.889 2107.78C792.385 2107.68 962.785 2107.68 1133.28 2107.68C1175.52 2107.68 1215.07 2126.98 1241.09 2160.1C1243.01 2162.5 1469.09 2452.13 1492.13 2481.99C1553.28 2561.28 1614.53 2640.68 1741.92 2802.15C1828.99 2912.64 1897.06 2902.37 1970.3 2803.4C2101.82 2634.34 2233.34 2465.19 2364.86 2296.13C2411.52 2236.13 2497.92 2225.28 2557.92 2271.94C2617.92 2318.5 2628.77 2405 2582.11 2465C2405.95 2690.5 2229.79 2916 2053.63 3141.6C1939.58 3284.07 1807.58 3302.31 1666.85 3141.12L1274.78 2649.8C1220.64 2579.62 1166.5 2509.35 1066.27 2381.96C1009.25 2381.96 952.129 2381.96 895.105 2381.96C1150.27 2705.86 1388.93 3008.93 1644.1 3332.74C1744.22 3459.84 1971.84 3454.28 2071.97 3327.17C2366.88 2952.77 2640.96 2604.87 2935.87 2230.47C3004.7 2143.01 2944.51 2016.29 2831.9 2016.29C2181.22 2016.29 1530.43 2016.29 879.745 2016.29C549.217 2016.29 339.745 1627.11 555.745 1352.74Z" fill="url(#paint1_linear_676_2161)"/>
<defs>
<linearGradient id="paint0_linear_676_2161" x1="3703.87" y1="908.692" x2="8573.47" y2="908.692" gradientUnits="userSpaceOnUse">
<stop stop-color="#FF0000"/>
<stop offset="0.162629" stop-color="#FF0000"/>
<stop offset="0.163926" stop-color="#005DFF"/>
</linearGradient>
<linearGradient id="paint1_linear_676_2161" x1="486.523" y1="2560.32" x2="3541.5" y2="2594.5" gradientUnits="userSpaceOnUse">
<stop stop-color="#0051DD"/>
<stop offset="0.47" stop-color="#2861C4"/>
<stop offset="1" stop-color="#337AF8"/>
</linearGradient>
</defs>
</svg>
