<svg width="44" height="44" viewBox="0 0 44 44" fill="none" xmlns="http://www.w3.org/2000/svg">
<g clip-path="url(#clip0_1127_2252)">
<mask id="mask0_1127_2252" style="mask-type:luminance" maskUnits="userSpaceOnUse" x="0" y="0" width="44" height="44">
<path d="M44 0H0V44H44V0Z" fill="white"/>
</mask>
<g mask="url(#mask0_1127_2252)">
<path d="M32.5 16V16.5H33H37.125C37.3716 16.5 37.5997 16.5895 37.7609 16.7361C37.9206 16.8812 38 17.0673 38 17.25V34.75C38 34.9327 37.9206 35.1188 37.7609 35.2639C37.5997 35.4105 37.3716 35.5 37.125 35.5H6.875C6.62837 35.5 6.4003 35.4105 6.23906 35.2639C6.07941 35.1188 6 34.9327 6 34.75V17.25C6 17.0673 6.07941 16.8812 6.23906 16.7361C6.40031 16.5895 6.62837 16.5 6.875 16.5H11H11.5V16V12.25C11.5 12.0673 11.5794 11.8812 11.7391 11.7361C11.9003 11.5895 12.1284 11.5 12.375 11.5H15.125H15.625V11V9.75C15.625 9.5673 15.7044 9.3812 15.8641 9.2361C16.0253 9.0895 16.2534 9 16.5 9H27.5C27.7466 9 27.9747 9.0895 28.1359 9.2361C28.2956 9.3812 28.375 9.5673 28.375 9.75V11V11.5H28.875H31.625C31.8716 11.5 32.0997 11.5895 32.2609 11.7361C32.4206 11.8812 32.5 12.0673 32.5 12.25V16ZM11.6875 28H10.3125C10.0121 28 9.71558 28.108 9.49003 28.3131C9.26289 28.5196 9.125 28.8104 9.125 29.125V32.875C9.125 33.1896 9.26289 33.4804 9.49003 33.6869C9.71558 33.892 10.0121 34 10.3125 34H11.6875C11.9879 34 12.2844 33.892 12.51 33.6869C12.7371 33.4804 12.875 33.1896 12.875 32.875V29.125C12.875 28.8104 12.7371 28.5196 12.51 28.3131C12.2844 28.108 11.9879 28 11.6875 28ZM17.1875 28H15.8125C15.5121 28 15.2156 28.108 14.99 28.3131C14.7629 28.5196 14.625 28.8104 14.625 29.125V32.875C14.625 33.1896 14.7629 33.4804 14.99 33.6869C15.2156 33.892 15.5121 34 15.8125 34H17.1875C17.4879 34 17.7844 33.892 18.01 33.6869C18.2371 33.4804 18.375 33.1896 18.375 32.875V29.125C18.375 28.8104 18.2371 28.5196 18.01 28.3131C17.7844 28.108 17.4879 28 17.1875 28ZM20.49 28.3131C20.2629 28.5196 20.125 28.8104 20.125 29.125V32.875C20.125 33.1896 20.2629 33.4804 20.49 33.6869C20.7156 33.892 21.0121 34 21.3125 34H22.6875C22.9879 34 23.2844 33.892 23.51 33.6869C23.7371 33.4804 23.875 33.1896 23.875 32.875V29.125C23.875 28.8104 23.7371 28.5196 23.51 28.3131C23.2844 28.108 22.9879 28 22.6875 28H21.3125C21.0121 28 20.7156 28.108 20.49 28.3131ZM28.1875 28H26.8125C26.5121 28 26.2156 28.108 25.99 28.3131C25.7629 28.5196 25.625 28.8104 25.625 29.125V32.875C25.625 33.1896 25.7629 33.4804 25.99 33.6869C26.2156 33.892 26.5121 34 26.8125 34H28.1875C28.4879 34 28.7844 33.892 29.01 33.6869C29.2371 33.4804 29.375 33.1896 29.375 32.875V29.125C29.375 28.8104 29.2371 28.5196 29.01 28.3131C28.7844 28.108 28.4879 28 28.1875 28ZM31.49 28.3131C31.2629 28.5196 31.125 28.8104 31.125 29.125V32.875C31.125 33.1896 31.2629 33.4804 31.49 33.6869C31.7156 33.892 32.0121 34 32.3125 34H33.6875C33.9879 34 34.2844 33.892 34.51 33.6869C34.7371 33.4804 34.875 33.1896 34.875 32.875V29.125C34.875 28.8104 34.7371 28.5196 34.51 28.3131C34.2844 28.108 33.9879 28 33.6875 28H32.3125C32.0121 28 31.7156 28.108 31.49 28.3131Z" fill="#FF0D0D" stroke="#FF0D0D"/>
<path d="M1.96447 1.96447C2.90215 1.02678 4.17392 0.5 5.5 0.5H38.5C39.8261 0.5 41.0979 1.02678 42.0355 1.96447C42.9732 2.90215 43.5 4.17392 43.5 5.5V38.5C43.5 39.8261 42.9732 41.0979 42.0355 42.0355C41.0979 42.9732 39.8261 43.5 38.5 43.5H5.5C4.17392 43.5 2.90215 42.9732 1.96447 42.0355C1.02678 41.0979 0.5 39.8261 0.5 38.5V5.5C0.5 4.17392 1.02678 2.90215 1.96447 1.96447ZM3.2019 3.2019C2.59241 3.8114 2.25 4.63805 2.25 5.5V38.5C2.25 39.362 2.59241 40.1886 3.2019 40.7981C3.8114 41.4076 4.63805 41.75 5.5 41.75H38.5C39.362 41.75 40.1886 41.4076 40.7981 40.7981C41.4076 40.1886 41.75 39.362 41.75 38.5V5.5C41.75 4.63805 41.4076 3.8114 40.7981 3.2019C40.1886 2.59241 39.362 2.25 38.5 2.25H5.5C4.63805 2.25 3.8114 2.59241 3.2019 3.2019Z" fill="#FF0D0D" stroke="#FF0D0D"/>
</g>
</g>
<defs>
<clipPath id="clip0_1127_2252">
<rect width="44" height="44" fill="white"/>
</clipPath>
</defs>
</svg>
