<svg width="75" height="72" viewBox="0 0 75 72" fill="none" xmlns="http://www.w3.org/2000/svg">
<path d="M37.3248 23.0407C37.3762 23.0066 37.4372 22.988 37.4998 22.9873C37.5123 22.9873 37.5654 22.9873 37.6748 23.0407C37.8725 23.1462 38.0518 23.2803 38.2061 23.4382C38.6842 23.9068 39.2311 24.7165 39.7436 25.9326C40.2498 27.1309 40.6686 28.6051 40.9623 30.2809C41.1352 31.2736 41.2581 32.3028 41.3311 33.3687H33.6686C33.7415 32.3028 33.8644 31.2746 34.0373 30.2839C34.2762 28.7958 34.6848 27.3368 35.2561 25.9326C35.7686 24.7165 36.3186 23.9068 36.7936 23.4382C36.9479 23.2803 37.1271 23.1462 37.3248 23.0407ZM28.9717 33.3687C29.0498 32.0665 29.1998 30.7852 29.4123 29.5543C29.6871 27.9208 30.1213 26.3152 30.7092 24.7581C29.0732 25.6822 27.6656 26.9293 26.5818 28.4149C25.4981 29.9006 24.7635 31.59 24.4279 33.3687H28.9717ZM24.4279 37.8178H28.9686C29.0467 39.1199 29.1967 40.4013 29.4092 41.6322C29.684 43.2656 30.1181 44.8713 30.7061 46.4284C29.07 45.5043 27.6625 44.2572 26.5787 42.7716C25.495 41.2859 24.7635 39.5965 24.4279 37.8178ZM50.5717 33.3687C50.2361 31.59 49.5015 29.9006 48.4178 28.4149C47.334 26.9293 45.9264 25.6822 44.2904 24.7581C44.8529 26.1996 45.2842 27.825 45.5873 29.5543C45.7998 30.7852 45.9498 32.0665 46.0248 33.3687H50.5717ZM46.0279 37.8178H50.5717C50.2361 39.5965 49.5015 41.2859 48.4178 42.7716C47.334 44.2572 45.9264 45.5043 44.2904 46.4284C44.8529 44.9869 45.2842 43.3615 45.5873 41.6322C45.7998 40.4013 45.9498 39.1199 46.0248 37.8178M41.3311 37.8178C41.2598 38.851 41.1367 39.8804 40.9623 40.9026C40.7234 42.3906 40.3148 43.8496 39.7436 45.2538C39.2311 46.4699 38.6811 47.2797 38.2061 47.7483C38.0518 47.9061 37.8725 48.0402 37.6748 48.1458C37.6234 48.1798 37.5625 48.1984 37.4998 48.1992C37.4873 48.1992 37.4342 48.1992 37.3248 48.1458C37.1271 48.0402 36.9479 47.9061 36.7936 47.7483C36.3154 47.2797 35.7686 46.4699 35.2561 45.2538C34.685 43.8506 34.2764 42.3926 34.0373 40.9055C33.8628 39.8824 33.7397 38.852 33.6686 37.8178H41.3311Z" fill="white"/>
<path fill-rule="evenodd" clip-rule="evenodd" d="M10.5563 15.0737C9.375 16.6694 9.375 21.4152 9.375 30.8978V35.5665C9.375 52.2893 22.6219 60.4076 30.9344 63.8512C33.1875 64.7855 34.3156 65.2542 37.5 65.2542C40.6875 65.2542 41.8125 64.7855 44.0656 63.8512C52.3781 60.4046 65.625 52.2923 65.625 35.5665V30.8978C65.625 21.4122 65.625 16.6694 64.4437 15.0737C63.2656 13.4809 58.5687 11.9533 49.1719 8.9012L47.3812 8.31984C42.4844 6.72704 40.0375 5.93213 37.5 5.93213C34.9625 5.93213 32.5156 6.72704 27.6188 8.31984L25.8281 8.89823C16.4313 11.9533 11.7344 13.4809 10.5563 15.0737ZM19.5312 35.5931C19.5313 31.0699 21.4244 26.7318 24.7942 23.5334C28.164 20.3349 32.7344 18.5381 37.5 18.5381C42.2656 18.5381 46.836 20.3349 50.2058 23.5334C53.5756 26.7318 55.4687 31.0699 55.4688 35.5931C55.4687 40.1164 53.5756 44.4545 50.2058 47.6529C46.836 50.8514 42.2656 52.6482 37.5 52.6482C32.7344 52.6482 28.164 50.8514 24.7942 47.6529C21.4244 44.4545 19.5313 40.1164 19.5312 35.5931Z" fill="white"/>
</svg>
