<svg width="3984" height="5309" viewBox="0 0 3984 5309" fill="none" xmlns="http://www.w3.org/2000/svg">
<path d="M126.527 1901.72C550.278 1363.79 974.031 825.859 1397.78 288.068C1700.01 -95.5174 2278.11 -95.5174 2580.34 288.068C3030.71 859.652 3481.22 1431.37 3931.59 2003.1C4038.49 2139.23 3930.35 2334.4 3762.07 2322.26C3517.22 2322.26 3272.24 2322.26 3027.27 2322.26C2966.57 2322.26 2909.74 2294.55 2872.36 2247.09C2869.6 2243.64 2544.75 1827.38 2511.79 1784.62C2423.78 1670.54 2335.77 1556.62 2152.86 1324.62C2027.62 1165.86 1929.81 1180.62 1824.56 1322.69C1635.58 1565.71 1446.6 1808.61 1257.63 2051.64C1190.73 2137.85 1066.45 2153.44 980.238 2086.4C894.026 2019.37 878.436 1895.24 945.48 1809.03C1198.6 1484.89 1451.72 1160.89 1704.84 836.894C1868.7 632.067 2058.37 605.998 2260.74 837.584L2823.93 1543.51C2901.74 1644.33 2979.53 1745.17 3123.55 1928.2C3205.62 1928.2 3287.55 1928.2 3369.49 1928.2C3002.85 1462.82 2659.93 1027.51 2293.28 562.136C2149.41 379.516 1822.36 387.516 1678.49 570.136C1254.74 1108.07 860.92 1607.92 437.168 2145.85C338.265 2271.51 424.753 2453.71 586.556 2453.71C1521.51 2453.71 2456.61 2453.71 3391.56 2453.71C3504.26 2453.71 3610.61 2485.02 3702.48 2542.55C3751.18 2573.02 3795.32 2610.68 3833.11 2654.55C4008.84 2852.33 4048.98 3163.37 3857.1 3407.09C3433.35 3944.89 3009.61 4482.82 2585.86 5020.75C2283.63 5404.19 1705.53 5404.32 1403.3 5020.75C952.923 4449.02 502.551 3877.3 52.0395 3305.58C-54.8639 3169.57 53.4189 2974.4 221.568 2986.54C466.549 2986.4 711.392 2986.4 956.372 2986.4C1017.07 2986.4 1073.89 3014.13 1111.28 3061.71C1114.04 3065.16 1438.89 3481.3 1471.99 3524.2C1559.86 3638.12 1647.87 3752.2 1830.91 3984.2C1956.02 4142.95 2053.83 4128.19 2159.06 3985.99C2348.04 3743.09 2537.02 3500.06 2726 3257.16C2793.04 3170.95 2917.19 3155.36 3003.4 3222.4C3089.61 3289.3 3105.2 3413.58 3038.16 3499.79C2785.04 3823.78 2531.92 4147.77 2278.8 4471.91C2114.92 4676.61 1925.26 4702.82 1723.04 4471.22L1159.69 3765.3C1081.9 3664.47 1004.1 3563.51 860.087 3380.48C778.156 3380.48 696.081 3380.48 614.144 3380.48C980.784 3845.85 1323.71 4281.29 1690.36 4746.54C1834.21 4929.15 2161.28 4921.16 2305.15 4738.53C2728.9 4200.6 3122.72 3700.75 3546.47 3162.82C3645.37 3037.16 3558.88 2855.09 3397.07 2855.09C2462.13 2855.09 1527.03 2855.09 592.074 2855.09C117.147 2855.09 -183.838 2295.93 126.527 1901.72Z" fill="url(#paint0_linear_747_2087)"/>
<defs>
<linearGradient id="paint0_linear_747_2087" x1="27.0638" y1="3636.74" x2="4416.68" y2="3685.86" gradientUnits="userSpaceOnUse">
<stop stop-color="white"/>
<stop offset="0.47" stop-color="white"/>
<stop offset="1" stop-color="white"/>
</linearGradient>
</defs>
</svg>
