<svg width="75" height="75" viewBox="0 0 75 75" fill="none" xmlns="http://www.w3.org/2000/svg">
<path d="M37.5 5.46875C36.0513 5.46852 34.6282 5.85123 33.375 6.57813L12.7188 18.4531L12.7125 18.4594C11.4595 19.1879 10.4196 20.2326 9.69687 21.4889C8.9741 22.7453 8.59373 24.1693 8.59378 25.6188V49.3781C8.59002 50.8287 8.96879 52.2546 9.69191 53.5121C10.415 54.7696 11.4569 55.8142 12.7125 56.5406L12.7219 56.5469L33.3719 68.4188H33.3782C34.6309 69.1453 36.0534 69.528 37.5016 69.528C38.9498 69.528 40.3723 69.1453 41.625 68.4188H41.6282L62.2782 56.5438H62.2875C63.5419 55.8144 64.5827 54.7683 65.3055 53.5101C66.0284 52.252 66.408 50.826 66.4063 49.375V25.625C66.4069 24.175 66.0268 22.7504 65.304 21.4934C64.5812 20.2365 63.541 19.1913 62.2875 18.4625L41.6313 6.5875L41.625 6.58125C40.3721 5.85327 38.9491 5.46946 37.5 5.46875ZM37.5 21.4906C38.1216 21.4906 38.7178 21.7376 39.1573 22.1771C39.5968 22.6166 39.8438 23.2128 39.8438 23.8344V41.0219C39.8438 41.6435 39.5968 42.2396 39.1573 42.6792C38.7178 43.1187 38.1216 43.3656 37.5 43.3656C36.8784 43.3656 36.2823 43.1187 35.8427 42.6792C35.4032 42.2396 35.1563 41.6435 35.1563 41.0219V23.8344C35.1563 23.2128 35.4032 22.6166 35.8427 22.1771C36.2823 21.7376 36.8784 21.4906 37.5 21.4906ZM39.8438 49.6031V51.1656C39.8438 51.7872 39.5968 52.3834 39.1573 52.8229C38.7178 53.2624 38.1216 53.5094 37.5 53.5094C36.8784 53.5094 36.2823 53.2624 35.8427 52.8229C35.4032 52.3834 35.1563 51.7872 35.1563 51.1656V49.6031C35.1563 48.9815 35.4032 48.3854 35.8427 47.9458C36.2823 47.5063 36.8784 47.2594 37.5 47.2594C38.1216 47.2594 38.7178 47.5063 39.1573 47.9458C39.5968 48.3854 39.8438 48.9815 39.8438 49.6031Z" fill="white"/>
</svg>
