<svg width="43" height="18" viewBox="0 0 43 18" fill="none" xmlns="http://www.w3.org/2000/svg">
<path d="M1.5 5.73684L3.80769 1H41.5M1.5 5.73684H39.1923M1.5 5.73684V16.7895H39.1923M39.1923 5.73684L41.5 1M39.1923 5.73684V16.7895M41.5 1V12.0526L39.1923 16.7895" stroke="black" stroke-width="1.3"/>
<path d="M5.18408 10.0229V10.6244M5.18408 10.6244V11.8274H6.49987V13.6319H8.47356H9.13145V11.8274H10.4472V9.42139H5.18408V10.6244Z" stroke="black" stroke-width="1.3"/>
<path d="M13.6055 10.0229V10.6244M13.6055 10.6244V11.8274H14.9213V13.6319H16.8949H17.5528V11.8274H18.8686V9.42139H13.6055V10.6244Z" stroke="black" stroke-width="1.3"/>
<path d="M22.0259 10.0229V10.6244M22.0259 10.6244V11.8274H23.3417V13.6319H25.3154H25.9732V11.8274H27.289V9.42139H22.0259V10.6244Z" stroke="black" stroke-width="1.3"/>
<path d="M30.4473 10.0229V10.6244M30.4473 10.6244V11.8274H31.7631V13.6319H33.7367H34.3946V11.8274H35.7104V9.42139H30.4473V10.6244Z" stroke="black" stroke-width="1.3"/>
</svg>
