<svg width="207" height="117" viewBox="0 0 207 117" fill="none" xmlns="http://www.w3.org/2000/svg">
<g clip-path="url(#clip0_1116_2265)">
<path d="M207 0H0V117H207V0Z" fill="white"/>
<path d="M191.199 9.48828H17.3821C14.764 9.48828 12.6416 11.6119 12.6416 14.2315V99.6099C12.6416 102.23 14.764 104.353 17.3821 104.353H191.199C193.817 104.353 195.939 102.23 195.939 99.6099V14.2315C195.939 11.6119 193.817 9.48828 191.199 9.48828Z" fill="white" stroke="black" stroke-width="10"/>
<path d="M176 102C176 102 176 90.2749 176 87.798V32.4848C176 30.0079 173.985 28 171.5 28H36.5C34.0147 28 32 30.0079 32 32.4848V87.798C32 90.2749 32 101.253 32 101.253" stroke="black" stroke-width="10"/>
<line x1="48.9844" y1="61.4062" x2="158.015" y2="61.4062" stroke="black" stroke-width="10"/>
</g>
<defs>
<clipPath id="clip0_1116_2265">
<rect width="207" height="117" fill="white"/>
</clipPath>
</defs>
</svg>
